<mxfile host="app.diagrams.net" modified="2024-02-17T00:31:12.818Z" agent="Mozilla/5.0 (Windows NT 10.0; Win64; x64) AppleWebKit/537.36 (KHTML, like Gecko) Chrome/121.0.0.0 Safari/537.36" etag="k08UN-IjM8s9xJ7h9m37" version="23.1.5" type="github">
  <diagram name="Página-1" id="dxn-h5XX1xDLe9hT-weO">
    <mxGraphModel dx="4587" dy="1533" grid="1" gridSize="10" guides="1" tooltips="1" connect="1" arrows="1" fold="1" page="1" pageScale="1" pageWidth="827" pageHeight="1169" math="0" shadow="0">
      <root>
        <mxCell id="0" />
        <mxCell id="1" parent="0" />
        <mxCell id="PX8ZdNLclLkLgQhouLW5-55" style="edgeStyle=orthogonalEdgeStyle;rounded=0;orthogonalLoop=1;jettySize=auto;html=1;exitX=1;exitY=0.5;exitDx=0;exitDy=0;entryX=0;entryY=0.5;entryDx=0;entryDy=0;" edge="1" parent="1" target="PX8ZdNLclLkLgQhouLW5-60">
          <mxGeometry relative="1" as="geometry">
            <mxPoint x="-380" y="1100" as="sourcePoint" />
            <mxPoint x="-380" y="1180" as="targetPoint" />
            <Array as="points">
              <mxPoint x="-380" y="1235" />
            </Array>
          </mxGeometry>
        </mxCell>
        <mxCell id="PX8ZdNLclLkLgQhouLW5-46" value="Cargo/Função" style="ellipse;whiteSpace=wrap;html=1;" vertex="1" parent="1">
          <mxGeometry x="-260" y="1130" width="160" height="50" as="geometry" />
        </mxCell>
        <mxCell id="PX8ZdNLclLkLgQhouLW5-53" value="Nome" style="ellipse;whiteSpace=wrap;html=1;" vertex="1" parent="1">
          <mxGeometry x="-610" y="1130" width="160" height="50" as="geometry" />
        </mxCell>
        <mxCell id="PX8ZdNLclLkLgQhouLW5-54" style="edgeStyle=orthogonalEdgeStyle;rounded=0;orthogonalLoop=1;jettySize=auto;html=1;" edge="1" parent="1" target="PX8ZdNLclLkLgQhouLW5-59">
          <mxGeometry relative="1" as="geometry">
            <mxPoint x="-380" y="1090" as="sourcePoint" />
            <Array as="points">
              <mxPoint x="-380" y="1235" />
            </Array>
          </mxGeometry>
        </mxCell>
        <mxCell id="PX8ZdNLclLkLgQhouLW5-59" value="Departamento" style="ellipse;whiteSpace=wrap;html=1;" vertex="1" parent="1">
          <mxGeometry x="-610" y="1210" width="160" height="50" as="geometry" />
        </mxCell>
        <mxCell id="PX8ZdNLclLkLgQhouLW5-60" value="ID" style="ellipse;whiteSpace=wrap;html=1;" vertex="1" parent="1">
          <mxGeometry x="-270" y="1210" width="160" height="50" as="geometry" />
        </mxCell>
        <mxCell id="PX8ZdNLclLkLgQhouLW5-61" value="" style="endArrow=classic;html=1;rounded=0;entryX=0;entryY=0.5;entryDx=0;entryDy=0;" edge="1" parent="1" target="PX8ZdNLclLkLgQhouLW5-46">
          <mxGeometry width="50" height="50" relative="1" as="geometry">
            <mxPoint x="-380" y="1155" as="sourcePoint" />
            <mxPoint x="-280" y="1155" as="targetPoint" />
            <Array as="points">
              <mxPoint x="-330" y="1155" />
            </Array>
          </mxGeometry>
        </mxCell>
        <mxCell id="PX8ZdNLclLkLgQhouLW5-62" value="" style="endArrow=classic;html=1;rounded=0;entryX=1;entryY=0.5;entryDx=0;entryDy=0;" edge="1" parent="1" target="PX8ZdNLclLkLgQhouLW5-53">
          <mxGeometry width="50" height="50" relative="1" as="geometry">
            <mxPoint x="-380" y="1155" as="sourcePoint" />
            <mxPoint x="-290" y="1210" as="targetPoint" />
          </mxGeometry>
        </mxCell>
        <mxCell id="PX8ZdNLclLkLgQhouLW5-65" style="edgeStyle=orthogonalEdgeStyle;rounded=0;orthogonalLoop=1;jettySize=auto;html=1;entryX=0.5;entryY=0;entryDx=0;entryDy=0;" edge="1" parent="1" source="PX8ZdNLclLkLgQhouLW5-64" target="PX8ZdNLclLkLgQhouLW5-67">
          <mxGeometry relative="1" as="geometry">
            <mxPoint x="-1320" y="1175" as="targetPoint" />
            <Array as="points">
              <mxPoint x="-1325" y="1125" />
              <mxPoint x="-1325" y="1125" />
            </Array>
          </mxGeometry>
        </mxCell>
        <mxCell id="PX8ZdNLclLkLgQhouLW5-90" style="edgeStyle=orthogonalEdgeStyle;rounded=0;orthogonalLoop=1;jettySize=auto;html=1;" edge="1" parent="1" source="PX8ZdNLclLkLgQhouLW5-64">
          <mxGeometry relative="1" as="geometry">
            <mxPoint x="-1530" y="1230" as="targetPoint" />
          </mxGeometry>
        </mxCell>
        <mxCell id="PX8ZdNLclLkLgQhouLW5-91" style="edgeStyle=orthogonalEdgeStyle;rounded=0;orthogonalLoop=1;jettySize=auto;html=1;exitX=1;exitY=0.5;exitDx=0;exitDy=0;" edge="1" parent="1" source="PX8ZdNLclLkLgQhouLW5-64">
          <mxGeometry relative="1" as="geometry">
            <mxPoint x="-1140.0000000000002" y="1230" as="targetPoint" />
          </mxGeometry>
        </mxCell>
        <mxCell id="PX8ZdNLclLkLgQhouLW5-92" style="edgeStyle=orthogonalEdgeStyle;rounded=0;orthogonalLoop=1;jettySize=auto;html=1;entryX=0.5;entryY=0;entryDx=0;entryDy=0;" edge="1" parent="1" source="PX8ZdNLclLkLgQhouLW5-64" target="PX8ZdNLclLkLgQhouLW5-69">
          <mxGeometry relative="1" as="geometry" />
        </mxCell>
        <mxCell id="PX8ZdNLclLkLgQhouLW5-64" value="Ordem de serviço" style="rounded=0;whiteSpace=wrap;html=1;" vertex="1" parent="1">
          <mxGeometry x="-1415" y="1040" width="170" height="60" as="geometry" />
        </mxCell>
        <mxCell id="PX8ZdNLclLkLgQhouLW5-66" value="ID" style="ellipse;whiteSpace=wrap;html=1;" vertex="1" parent="1">
          <mxGeometry x="-1610" y="1235" width="160" height="50" as="geometry" />
        </mxCell>
        <mxCell id="PX8ZdNLclLkLgQhouLW5-67" value="Cliente_ID" style="ellipse;whiteSpace=wrap;html=1;" vertex="1" parent="1">
          <mxGeometry x="-1405" y="1235" width="160" height="50" as="geometry" />
        </mxCell>
        <mxCell id="PX8ZdNLclLkLgQhouLW5-68" value="Data" style="ellipse;whiteSpace=wrap;html=1;" vertex="1" parent="1">
          <mxGeometry x="-1215" y="1235" width="160" height="50" as="geometry" />
        </mxCell>
        <mxCell id="PX8ZdNLclLkLgQhouLW5-69" value="Colaborador_ID" style="ellipse;whiteSpace=wrap;html=1;" vertex="1" parent="1">
          <mxGeometry x="-1015" y="1235" width="160" height="50" as="geometry" />
        </mxCell>
        <mxCell id="PX8ZdNLclLkLgQhouLW5-77" style="edgeStyle=orthogonalEdgeStyle;rounded=0;orthogonalLoop=1;jettySize=auto;html=1;" edge="1" parent="1" source="PX8ZdNLclLkLgQhouLW5-74" target="PX8ZdNLclLkLgQhouLW5-64">
          <mxGeometry relative="1" as="geometry">
            <mxPoint x="-1240" y="1070" as="targetPoint" />
            <Array as="points">
              <mxPoint x="-1120" y="1010" />
              <mxPoint x="-1120" y="1030" />
              <mxPoint x="-1330" y="1030" />
            </Array>
          </mxGeometry>
        </mxCell>
        <mxCell id="PX8ZdNLclLkLgQhouLW5-74" value="Executa" style="rhombus;whiteSpace=wrap;html=1;" vertex="1" parent="1">
          <mxGeometry x="-990" y="960" width="250" height="80" as="geometry" />
        </mxCell>
        <mxCell id="PX8ZdNLclLkLgQhouLW5-76" style="edgeStyle=orthogonalEdgeStyle;rounded=0;orthogonalLoop=1;jettySize=auto;html=1;exitX=0;exitY=0.5;exitDx=0;exitDy=0;entryX=1;entryY=0.5;entryDx=0;entryDy=0;" edge="1" parent="1" source="PX8ZdNLclLkLgQhouLW5-75" target="PX8ZdNLclLkLgQhouLW5-74">
          <mxGeometry relative="1" as="geometry">
            <mxPoint x="-730" y="1070" as="targetPoint" />
          </mxGeometry>
        </mxCell>
        <mxCell id="PX8ZdNLclLkLgQhouLW5-75" value="Colaborador" style="rounded=0;whiteSpace=wrap;html=1;" vertex="1" parent="1">
          <mxGeometry x="-460" y="1040" width="170" height="60" as="geometry" />
        </mxCell>
        <mxCell id="PX8ZdNLclLkLgQhouLW5-79" style="edgeStyle=orthogonalEdgeStyle;rounded=0;orthogonalLoop=1;jettySize=auto;html=1;entryX=0.5;entryY=0;entryDx=0;entryDy=0;" edge="1" parent="1" source="PX8ZdNLclLkLgQhouLW5-78" target="PX8ZdNLclLkLgQhouLW5-64">
          <mxGeometry relative="1" as="geometry">
            <Array as="points">
              <mxPoint x="-1325" y="990" />
              <mxPoint x="-1330" y="990" />
            </Array>
          </mxGeometry>
        </mxCell>
        <mxCell id="PX8ZdNLclLkLgQhouLW5-78" value="Cria OS" style="rhombus;whiteSpace=wrap;html=1;" vertex="1" parent="1">
          <mxGeometry x="-1450" y="850" width="250" height="80" as="geometry" />
        </mxCell>
        <mxCell id="PX8ZdNLclLkLgQhouLW5-85" style="edgeStyle=orthogonalEdgeStyle;rounded=0;orthogonalLoop=1;jettySize=auto;html=1;" edge="1" parent="1" source="PX8ZdNLclLkLgQhouLW5-80" target="PX8ZdNLclLkLgQhouLW5-82">
          <mxGeometry relative="1" as="geometry" />
        </mxCell>
        <mxCell id="PX8ZdNLclLkLgQhouLW5-87" style="edgeStyle=orthogonalEdgeStyle;rounded=0;orthogonalLoop=1;jettySize=auto;html=1;exitX=1;exitY=0.5;exitDx=0;exitDy=0;entryX=0.5;entryY=0;entryDx=0;entryDy=0;" edge="1" parent="1" source="PX8ZdNLclLkLgQhouLW5-80" target="PX8ZdNLclLkLgQhouLW5-81">
          <mxGeometry relative="1" as="geometry" />
        </mxCell>
        <mxCell id="PX8ZdNLclLkLgQhouLW5-89" style="edgeStyle=orthogonalEdgeStyle;rounded=0;orthogonalLoop=1;jettySize=auto;html=1;exitX=0.5;exitY=1;exitDx=0;exitDy=0;entryX=0.5;entryY=0;entryDx=0;entryDy=0;" edge="1" parent="1" source="PX8ZdNLclLkLgQhouLW5-80" target="PX8ZdNLclLkLgQhouLW5-78">
          <mxGeometry relative="1" as="geometry" />
        </mxCell>
        <mxCell id="PX8ZdNLclLkLgQhouLW5-80" value="Cliente" style="rounded=0;whiteSpace=wrap;html=1;" vertex="1" parent="1">
          <mxGeometry x="-1410" y="540" width="170" height="60" as="geometry" />
        </mxCell>
        <mxCell id="PX8ZdNLclLkLgQhouLW5-88" style="edgeStyle=orthogonalEdgeStyle;rounded=0;orthogonalLoop=1;jettySize=auto;html=1;exitX=0.5;exitY=1;exitDx=0;exitDy=0;entryX=0.5;entryY=0;entryDx=0;entryDy=0;endArrow=none;endFill=0;" edge="1" parent="1" source="PX8ZdNLclLkLgQhouLW5-81" target="PX8ZdNLclLkLgQhouLW5-83">
          <mxGeometry relative="1" as="geometry" />
        </mxCell>
        <mxCell id="PX8ZdNLclLkLgQhouLW5-81" value="Endereço" style="ellipse;whiteSpace=wrap;html=1;" vertex="1" parent="1">
          <mxGeometry x="-1185" y="620" width="160" height="50" as="geometry" />
        </mxCell>
        <mxCell id="PX8ZdNLclLkLgQhouLW5-86" style="edgeStyle=orthogonalEdgeStyle;rounded=0;orthogonalLoop=1;jettySize=auto;html=1;exitX=0.5;exitY=1;exitDx=0;exitDy=0;entryX=0.5;entryY=0;entryDx=0;entryDy=0;endArrow=none;endFill=0;" edge="1" parent="1" source="PX8ZdNLclLkLgQhouLW5-82" target="PX8ZdNLclLkLgQhouLW5-84">
          <mxGeometry relative="1" as="geometry" />
        </mxCell>
        <mxCell id="PX8ZdNLclLkLgQhouLW5-82" value="Nome" style="ellipse;whiteSpace=wrap;html=1;" vertex="1" parent="1">
          <mxGeometry x="-1635" y="620" width="160" height="50" as="geometry" />
        </mxCell>
        <mxCell id="PX8ZdNLclLkLgQhouLW5-83" value="Contato" style="ellipse;whiteSpace=wrap;html=1;" vertex="1" parent="1">
          <mxGeometry x="-1185" y="720" width="160" height="50" as="geometry" />
        </mxCell>
        <mxCell id="PX8ZdNLclLkLgQhouLW5-84" value="Cliente_ID" style="ellipse;whiteSpace=wrap;html=1;" vertex="1" parent="1">
          <mxGeometry x="-1635" y="720" width="160" height="50" as="geometry" />
        </mxCell>
      </root>
    </mxGraphModel>
  </diagram>
</mxfile>
